<svg id="visual" viewBox="0 0 900 600" width="900" height="600" xmlns="http://www.w3.org/2000/svg" xmlns:xlink="http://www.w3.org/1999/xlink" version="1.1"><rect x="0" y="0" width="900" height="600" fill="#001220"></rect><defs><linearGradient id="grad1_0" x1="33.3%" y1="0%" x2="100%" y2="100%"><stop offset="20%" stop-color="#001220" stop-opacity="1"></stop><stop offset="80%" stop-color="#001220" stop-opacity="1"></stop></linearGradient></defs><defs><linearGradient id="grad2_0" x1="0%" y1="0%" x2="66.7%" y2="100%"><stop offset="20%" stop-color="#001220" stop-opacity="1"></stop><stop offset="80%" stop-color="#001220" stop-opacity="1"></stop></linearGradient></defs><g transform="translate(900, 0)"><path d="M0 486.7C-36.3 440.2 -72.6 393.6 -125.8 387.1C-179 380.6 -249.1 414.2 -286.1 393.8C-323.1 373.4 -326.9 299 -341.4 248C-355.9 197.1 -381.1 169.7 -407.1 132.3C-433.1 94.8 -459.9 47.4 -486.7 0L0 0Z" fill="#715DF2"></path></g><g transform="translate(0, 600)"><path d="M0 -486.7C41.2 -452 82.4 -417.2 130.1 -400.4C177.8 -383.6 232 -384.8 258.6 -356C285.3 -327.1 284.4 -268.2 320.4 -232.8C356.3 -197.3 429.1 -185.3 462.9 -150.4C496.8 -115.5 491.8 -57.8 486.7 0L0 0Z" fill="#715DF2"></path></g></svg>