<svg id="visual" viewBox="0 0 900 600" width="900" height="600" xmlns="http://www.w3.org/2000/svg" xmlns:xlink="http://www.w3.org/1999/xlink" version="1.1"><path d="M0 163L25 163C50 163 100 163 150 170C200 177 250 191 300 199C350 207 400 209 450 212C500 215 550 219 600 218C650 217 700 211 750 210C800 209 850 213 875 215L900 217L900 0L875 0C850 0 800 0 750 0C700 0 650 0 600 0C550 0 500 0 450 0C400 0 350 0 300 0C250 0 200 0 150 0C100 0 50 0 25 0L0 0Z" fill="#0066ff"></path><path d="M0 307L25 301C50 295 100 283 150 288C200 293 250 315 300 321C350 327 400 317 450 320C500 323 550 339 600 349C650 359 700 363 750 362C800 361 850 355 875 352L900 349L900 215L875 213C850 211 800 207 750 208C700 209 650 215 600 216C550 217 500 213 450 210C400 207 350 205 300 197C250 189 200 175 150 168C100 161 50 161 25 161L0 161Z" fill="#0528a8"></path><path d="M0 487L25 494C50 501 100 515 150 520C200 525 250 521 300 515C350 509 400 501 450 499C500 497 550 501 600 508C650 515 700 525 750 527C800 529 850 523 875 520L900 517L900 347L875 350C850 353 800 359 750 360C700 361 650 357 600 347C550 337 500 321 450 318C400 315 350 325 300 319C250 313 200 291 150 286C100 281 50 293 25 299L0 305Z" fill="#0528a8"></path><path d="M0 601L25 601C50 601 100 601 150 601C200 601 250 601 300 601C350 601 400 601 450 601C500 601 550 601 600 601C650 601 700 601 750 601C800 601 850 601 875 601L900 601L900 515L875 518C850 521 800 527 750 525C700 523 650 513 600 506C550 499 500 495 450 497C400 499 350 507 300 513C250 519 200 523 150 518C100 513 50 499 25 492L0 485Z" fill="#0066ff"></path></svg>