<svg id="visual" viewBox="0 0 900 600" width="900" height="600" xmlns="http://www.w3.org/2000/svg" xmlns:xlink="http://www.w3.org/1999/xlink" version="1.1"><path d="M0 133L50 128C100 123 200 113 300 114C400 115 500 127 600 135C700 143 800 147 850 149L900 151L900 0L850 0C800 0 700 0 600 0C500 0 400 0 300 0C200 0 100 0 50 0L0 0Z" fill="#6198ff"></path><path d="M0 211L50 202C100 193 200 175 300 178C400 181 500 205 600 220C700 235 800 241 850 244L900 247L900 149L850 147C800 145 700 141 600 133C500 125 400 113 300 112C200 111 100 121 50 126L0 131Z" fill="#005fee"></path><path d="M0 253L50 245C100 237 200 221 300 229C400 237 500 269 600 288C700 307 800 313 850 316L900 319L900 245L850 242C800 239 700 233 600 218C500 203 400 179 300 176C200 173 100 191 50 200L0 209Z" fill="#004cbb"></path><path d="M0 523L50 492C100 461 200 399 300 375C400 351 500 365 600 390C700 415 800 451 850 469L900 487L900 317L850 314C800 311 700 305 600 286C500 267 400 235 300 227C200 219 100 235 50 243L0 251Z" fill="#005fee"></path><path d="M0 601L50 601C100 601 200 601 300 601C400 601 500 601 600 601C700 601 800 601 850 601L900 601L900 485L850 467C800 449 700 413 600 388C500 363 400 349 300 373C200 397 100 459 50 490L0 521Z" fill="#6198ff"></path></svg>